# xmcd CD database file
#
# Track frame offsets:
#	183
#	57708
#	85083
#	108708
#	122883
#	146733
#	154825
#	165313
#	170133
#	189708
#	192238
#	197583
#	210408
#	213758
#	219285
#	229068
#	235080
#	244160
#	253435
#	269048
#
# Disc length: 3903 seconds
#
# Revision: 3
# Processed by: cddbd v1.5.2PL0 Copyright (c) Steve Scherf et al.
# Submitted via: CDex 1.51
#
DISCID=330f3d14
DTITLE=BPO - Abbado - Mussorgsky Pictures at an Exhibition (Abbado)
DYEAR=1993
DGENRE=Orchestral
TTITLE0=Night on Bald Mountain
TTITLE1=The Destruction of Sannacherib
TTITLE2=Salammbô - Chorus of Priestesses
TTITLE3=Oedipus in Athens - Chorus of People in the Temple
TTITLE4=Joshua
TTITLE5=Pictures at an Exhibition -I- Promenade
TTITLE6=Pictures at an Exhibition -II- Gnomus
TTITLE7=Pictures at an Exhibition -III- Promenade
TTITLE8=Pictures at an Exhibition -IV- The Old Castle
TTITLE9=Pictures at an Exhibition -V- Promenade
TTITLE10=Pictures at an Exhibition -VI- Tuileries
TTITLE11=Pictures at an Exhibition -VII- Bydlo
TTITLE12=Pictures at an Exhibition -VIII- Promenade
TTITLE13=Pictures at an Exhibition -IX- Ballet of the Unhatche Chicks
TTITLE14=Pictures at an Exhibition -X- Samuel Goldenberg Und Schmuyle
TTITLE15=Pictures at an Exhibition -XI- The Limoges Market
TTITLE16=Pictures at an Exhibition -XII- Catacombae: Sepulchrum Romanum
TTITLE17=Pictures at an Exhibition -XIII- Cum Mortis In Lingua Mortua
TTITLE18=Pictures at an Exhibition -XIV- The Hut on Chicken's Legs
TTITLE19=Pictures at an Exhibition -XV- The Great Gate of Kiev
EXTD=(p) 1994 Deutsche Grammophon\\r\n0 28944 52382 9 YEAR: 1993
EXTT0=
EXTT1=
EXTT2=
EXTT3=
EXTT4=
EXTT5=
EXTT6=
EXTT7=
EXTT8=
EXTT9=
EXTT10=
EXTT11=
EXTT12=
EXTT13=
EXTT14=
EXTT15=
EXTT16=
EXTT17=
EXTT18=
EXTT19=
PLAYORDER=
